<svg xmlns="http://www.w3.org/2000/svg" version="1.1" xmlns:xlink="http://www.w3.org/1999/xlink" xmlns:svgjs="http://svgjs.dev/svgjs" width="1440" height="560" preserveAspectRatio="none" viewBox="0 0 1440 560">
    <g mask="url(&quot;#SvgjsMask1358&quot;)" fill="none">
        <rect width="1440" height="560" x="0" y="0" fill="rgba(33, 33, 33, 1)"></rect>
        <path d="M -892.1656900939932,528 C -796.17,449.2 -604.17,160.6 -412.16569009399325,134 C -220.17,107.4 -124.17,384.8 67.83430990600675,395 C 259.83,405.2 355.83,196.2 547.8343099060068,185 C 739.83,173.8 849.4,341.6 1027.8343099060066,339 C 1206.27,336.4 1357.57,205.4 1440,172" stroke="rgba(193, 193, 193, 1)" stroke-width="2"></path>
        <path d="M -276.157668882095,402 C -180.16,345.4 11.84,140.8 203.842331117905,119 C 395.84,97.2 491.84,303 683.842331117905,293 C 875.84,283 971.84,65.2 1163.842331117905,69 C 1355.84,72.8 1588.61,294.6 1643.842331117905,312 C 1699.07,329.4 1480.77,187.2 1440,156" stroke="rgba(215, 215, 215, 1)" stroke-width="2"></path>
        <path d="M -367.30161421927534,453 C -271.3,368.2 -79.3,19.4 112.69838578072466,29 C 304.7,38.6 400.7,489.8 592.6983857807247,501 C 784.7,512.2 880.7,87.8 1072.6983857807247,85 C 1264.7,82.2 1479.24,457.4 1552.6983857807247,487 C 1626.16,516.6 1462.54,283.8 1440,233" stroke="rgba(193, 193, 193, 1)" stroke-width="2"></path>
        <path d="M -929.8527705358493,374 C -833.85,347.6 -641.85,225 -449.85277053584934,242 C -257.85,259 -161.85,478.2 30.147229464150655,459 C 222.15,439.8 318.15,132.8 510.14722946415066,146 C 702.15,159.2 804.18,501.2 990.1472294641507,525 C 1176.12,548.8 1350.03,317 1440,265" stroke="rgba(215, 215, 215, 1)" stroke-width="2"></path>
        <path d="M -710.9058829775654,53 C -614.91,108 -422.91,299.6 -230.90588297756537,328 C -38.91,356.4 57.09,200.8 249.09411702243463,195 C 441.09,189.2 537.09,288.4 729.0941170224346,299 C 921.09,309.6 1066.91,230.2 1209.0941170224346,248 C 1351.28,265.8 1393.82,360 1440,388" stroke="rgba(193, 193, 193, 1)" stroke-width="2"></path>
    </g>
    <defs>
        <mask id="SvgjsMask1358">
            <rect width="1440" height="560" fill="#ffffff"></rect>
        </mask>
    </defs>
</svg>